<?xml version="1.0" standalone="no"?>
<!DOCTYPE svg PUBLIC "-//W3C//DTD SVG 20010904//EN"
 "http://www.w3.org/TR/2001/REC-SVG-20010904/DTD/svg10.dtd">
<svg version="1.0" xmlns="http://www.w3.org/2000/svg"
 width="424.000000pt" height="424.000000pt" viewBox="0 0 424.000000 424.000000"
 preserveAspectRatio="xMidYMid meet">
<metadata>
Created by potrace 1.16, written by Peter Selinger 2001-2019
</metadata>
<g transform="translate(0.000000,424.000000) scale(0.100000,-0.100000)"
fill="#000000" stroke="none">
<path d="M1834 4126 c-50 -7 -95 -16 -101 -19 -6 -4 -30 -9 -54 -12 -44 -5
-112 -21 -139 -32 -8 -3 -19 -7 -25 -8 -74 -18 -97 -28 -84 -36 10 -7 6 -8
-12 -3 -15 3 -30 1 -33 -5 -4 -6 -13 -11 -21 -11 -29 0 -195 -83 -188 -94 3
-6 3 -8 -2 -4 -15 14 -168 -78 -158 -95 3 -6 1 -7 -5 -3 -15 9 -64 -23 -55
-37 3 -6 1 -7 -5 -3 -7 4 -31 -8 -54 -26 -116 -90 -220 -183 -269 -240 -30
-35 -56 -65 -60 -68 -9 -8 -124 -162 -156 -210 -42 -62 -113 -199 -156 -300
-231 -547 -201 -1187 80 -1710 44 -81 177 -285 192 -294 4 -3 1 23 -6 57 -24
108 -28 327 -8 447 62 370 270 648 629 839 120 64 292 134 486 196 575 185
742 252 918 368 227 149 367 331 419 544 22 91 22 268 0 349 -27 97 -47 140
-59 123 -7 -10 -8 -9 -3 7 3 13 -2 31 -15 47 -11 14 -20 29 -20 34 0 5 -17 27
-38 49 -33 34 -54 44 -158 76 -211 65 -373 89 -599 87 -82 -1 -191 -7 -241
-13z"/>
<path d="M3985 1674 c-57 -51 -109 -86 -195 -128 -41 -21 -82 -41 -91 -46 -9
-4 -63 -20 -120 -34 -329 -81 -642 -60 -1199 79 -357 89 -446 106 -597 112
-154 7 -252 -6 -366 -47 -208 -76 -356 -221 -424 -417 -25 -71 -27 -91 -28
-228 0 -143 2 -154 31 -237 18 -48 50 -119 74 -157 46 -77 141 -194 180 -223
76 -55 423 -156 611 -178 135 -16 451 -8 569 14 390 73 674 212 1004 491 77
66 243 260 318 374 110 166 190 337 248 526 30 98 39 135 32 135 -4 0 -25 -17
-47 -36z"/>
</g>
</svg>
