<?xml version="1.0" standalone="no"?>
<!DOCTYPE svg PUBLIC "-//W3C//DTD SVG 20010904//EN"
 "http://www.w3.org/TR/2001/REC-SVG-20010904/DTD/svg10.dtd">
<svg version="1.0" xmlns="http://www.w3.org/2000/svg"
 width="900.000000pt" height="900.000000pt" viewBox="0 0 900.000000 900.000000"
 preserveAspectRatio="xMidYMid meet">
<metadata>
Created by potrace 1.16, written by Peter Selinger 2001-2019
</metadata>
<g transform="translate(0.000000,900.000000) scale(0.100000,-0.100000)"
fill="#000000" stroke="none">
<path d="M3825 7504 c-256 -56 -479 -237 -591 -479 -62 -134 -67 -164 -73
-464 l-6 -275 -85 -48 c-321 -184 -527 -464 -616 -838 -17 -71 -18 -188 -21
-1988 l-4 -1912 1490 0 c985 0 1516 4 1568 11 280 37 563 182 748 381 85 91
140 169 198 278 54 102 111 275 126 383 15 106 15 2659 1 2775 -28 223 -137
461 -293 640 -101 115 -277 253 -379 295 l-38 16 0 218 c0 256 -15 379 -60
487 -107 255 -301 430 -565 510 -67 20 -93 21 -700 23 -532 1 -641 -1 -700
-13z m1288 -359 c164 -43 291 -161 348 -326 20 -57 22 -85 23 -264 l1 -200
-983 -3 -984 -2 4 217 3 218 34 78 c57 133 184 244 322 281 81 22 1149 23
1232 1z m-277 -1894 c95 -23 164 -49 259 -98 311 -159 540 -466 601 -803 18
-101 18 -299 -1 -397 -67 -355 -290 -648 -609 -803 -169 -82 -299 -110 -509
-110 -154 0 -315 29 -434 78 l-72 30 -3 -301 -3 -302 -28 -57 c-53 -109 -143
-163 -272 -163 -67 0 -88 5 -130 27 -64 34 -118 90 -147 153 l-23 50 0 860 c0
803 1 866 19 945 62 286 220 529 454 702 132 98 353 189 506 208 104 13 297 3
392 -19z"/>
<path d="M4465 4659 c-110 -26 -241 -118 -309 -216 -135 -198 -105 -486 68
-658 204 -204 528 -205 728 -2 205 208 206 533 1 736 -76 74 -141 113 -228
136 -65 16 -197 18 -260 4z"/>
</g>
</svg>
