<?xml version="1.0" standalone="no"?>
<!DOCTYPE svg PUBLIC "-//W3C//DTD SVG 20010904//EN"
 "http://www.w3.org/TR/2001/REC-SVG-20010904/DTD/svg10.dtd">
<svg version="1.0" xmlns="http://www.w3.org/2000/svg"
 width="626.000000pt" height="468.000000pt" viewBox="0 0 626.000000 468.000000"
 preserveAspectRatio="xMidYMid meet">
<metadata>
Created by potrace 1.16, written by Peter Selinger 2001-2019
</metadata>
<g transform="translate(0.000000,468.000000) scale(0.100000,-0.100000)"
fill="#000000" stroke="none">
<path d="M5025 4459 c-225 -24 -432 -126 -591 -291 -180 -189 -261 -375 -271
-626 -6 -148 6 -246 43 -357 24 -72 915 -1974 924 -1975 6 0 855 1800 902
1913 53 125 70 232 65 402 -4 124 -9 165 -31 238 -136 453 -572 745 -1041 696z
m182 -219 c155 -20 296 -92 400 -204 73 -77 112 -144 149 -251 23 -69 27 -96
27 -195 0 -134 -26 -230 -90 -339 -56 -93 -176 -202 -277 -250 -109 -52 -172
-66 -296 -65 -184 2 -334 68 -461 201 -81 86 -120 150 -155 258 -23 67 -27 98
-27 195 0 99 4 126 27 195 36 106 76 174 147 250 102 109 242 184 381 204 85
12 92 12 175 1z"/>
<path d="M2139 4357 c-121 -41 -193 -109 -219 -206 -14 -52 -6 -95 15 -87 9 3
15 0 15 -8 0 -10 11 -11 48 -5 26 4 60 8 75 8 27 1 28 -1 25 -36 l-3 -38 -54
-3 c-75 -4 -108 -46 -56 -70 24 -11 25 -10 15 7 -22 42 -11 48 44 25 12 -4 17
-4 13 3 -4 6 23 8 76 7 l82 -3 23 -62 c34 -91 31 -169 -7 -213 -16 -18 -15
-18 16 -2 41 21 63 53 63 92 0 24 6 34 26 43 15 6 28 10 29 9 1 -2 8 -13 14
-25 6 -13 17 -23 23 -23 7 0 33 23 59 51 26 28 58 57 70 63 13 6 37 38 54 70
57 112 32 240 -68 339 -86 87 -237 112 -378 64z"/>
<path d="M3465 3750 c-4 -6 -78 -10 -189 -10 l-182 0 4 -412 c3 -227 8 -415
13 -419 5 -3 -37 -28 -94 -57 -56 -28 -130 -74 -164 -102 -35 -28 -63 -49 -63
-47 0 3 7 18 15 33 8 16 15 40 14 54 0 14 -3 19 -6 13 -6 -16 -59 -17 -115 -2
-31 9 -79 9 -173 2 l-130 -10 105 -2 c61 -1 118 -7 135 -15 28 -12 24 -13 -45
-10 -76 4 -130 -2 -130 -14 0 -4 19 -15 42 -25 50 -20 45 -27 -37 -61 -285
-116 -289 -117 -327 -87 -34 27 -52 28 -38 2 14 -27 14 -27 -25 -23 -21 3 -35
0 -35 -7 0 -6 -11 -8 -27 -5 -23 4 -30 0 -40 -20 -6 -15 -8 -24 -3 -21 4 3 13
-2 20 -10 7 -9 30 -15 54 -15 66 0 72 -9 58 -78 -23 -113 -7 -137 24 -36 14
43 20 52 30 42 16 -17 45 -119 37 -131 -3 -6 -1 -7 5 -3 11 7 16 -13 15 -66 0
-10 3 -16 6 -13 6 6 35 -104 53 -200 l13 -70 5 60 6 60 15 -50 c9 -27 12 -52
8 -53 -5 -2 -7 -8 -4 -13 3 -5 -9 -18 -27 -29 l-33 -21 30 7 c17 4 55 18 85
33 46 22 55 31 57 54 1 15 -2 25 -7 22 -6 -4 -7 2 -3 11 3 10 2 15 -3 12 -5
-4 -10 6 -11 20 0 14 -8 31 -17 37 -9 7 -23 29 -31 49 l-16 37 102 119 c55 66
104 120 108 120 8 0 93 -92 89 -95 -2 -2 -38 -17 -80 -35 -43 -17 -78 -36 -78
-40 0 -5 38 9 85 31 68 32 88 37 98 28 11 -10 6 -19 -26 -48 -75 -68 -96 -154
-76 -313 4 -34 3 -48 -5 -48 -16 0 -75 44 -104 78 -22 26 -21 12 2 -16 5 -8
11 -23 13 -34 2 -12 12 -40 23 -64 18 -43 18 -44 0 -44 -10 0 -31 11 -47 24
l-29 24 -65 -17 c-35 -10 -72 -22 -81 -25 -12 -6 -21 0 -32 23 -15 28 -15 31
2 40 9 6 11 11 5 11 -7 0 -28 30 -46 68 -18 37 -45 90 -59 117 -60 115 -89
179 -84 192 3 7 1 12 -5 10 -6 -1 -31 43 -57 98 -25 55 -47 102 -49 104 -7 9
-61 -54 -97 -111 -26 -41 -32 -57 -22 -61 7 -3 52 -68 100 -146 84 -135 131
-190 182 -213 18 -9 21 -14 13 -25 -9 -9 -8 -13 0 -13 7 0 11 -25 11 -69 0
-49 4 -72 15 -81 9 -8 15 -9 15 -2 0 6 -4 14 -10 17 -5 3 -9 34 -9 68 l2 62 6
-53 c7 -59 22 -75 63 -66 29 6 68 -10 68 -28 0 -5 -9 -8 -20 -5 -15 4 -20 0
-20 -15 0 -15 -5 -18 -20 -13 -16 5 -19 3 -13 -11 5 -14 2 -16 -20 -10 -21 5
-26 2 -29 -16 -2 -13 0 -36 5 -51 11 -34 17 -33 157 22 52 21 114 43 138 50
24 7 51 20 61 30 23 23 171 36 171 16 0 -7 18 -49 40 -93 69 -138 196 -244
345 -288 88 -26 240 -24 325 5 174 60 296 177 360 346 31 83 39 235 15 325
-73 281 -347 466 -623 420 -42 -8 -93 -15 -112 -16 -19 -1 -55 -6 -79 -10 -31
-5 -42 -4 -37 4 3 6 -2 25 -13 43 -19 32 -20 49 0 49 5 0 19 -20 30 -43 18
-37 25 -43 45 -39 13 2 24 8 24 12 0 14 87 30 217 41 70 5 141 14 157 19 23 7
40 3 90 -22 97 -49 201 -125 271 -199 57 -61 65 -67 74 -50 12 21 -22 82 -119
217 -30 42 -59 85 -65 95 -5 11 -18 19 -28 19 -16 0 -18 8 -15 57 3 51 6 57
28 63 35 10 342 240 337 254 -2 6 -14 13 -27 14 l-23 4 5 384 4 384 -197 0
c-121 0 -200 4 -204 10 -3 6 -15 10 -25 10 -10 0 -22 -4 -25 -10z m350 -809
c45 -9 34 -16 -40 -26 -73 -10 -95 -25 -224 -151 -112 -108 -141 -129 -141
-103 0 7 62 74 138 150 136 138 138 139 182 138 25 0 63 -4 85 -8z m-1340
-401 c8 -7 15 -10 15 -6 0 3 9 -3 21 -15 11 -11 26 -18 33 -16 6 3 21 -2 31
-10 20 -14 20 -14 -5 -34 -14 -12 -18 -17 -10 -13 8 4 -3 -10 -26 -32 -22 -21
-67 -72 -100 -113 -32 -41 -66 -82 -75 -93 -20 -26 -28 -15 -69 87 -17 44 -45
104 -61 134 -32 60 -35 77 -16 79 6 1 53 13 102 26 95 25 135 27 160 6z m465
-132 c0 -10 3 -9 9 1 7 10 16 11 37 4 l29 -10 -43 -7 c-71 -13 -180 -120 -241
-237 l-40 -75 47 -13 c26 -6 99 -29 162 -49 146 -47 114 -54 -78 -17 -180 34
-174 32 -166 58 4 12 12 25 18 29 7 5 4 8 -7 8 -23 0 -18 20 30 112 40 77 100
149 152 183 39 26 91 33 91 13z m-981 -77 c16 -16 27 -32 24 -35 -3 -3 2 -8
11 -12 9 -3 16 -12 16 -20 0 -8 7 -14 15 -14 8 0 15 -9 15 -20 0 -11 4 -20 8
-20 15 0 52 -90 52 -126 0 -19 5 -44 10 -55 16 -29 -5 -23 -32 10 -14 16 -62
88 -108 161 -78 125 -82 134 -65 147 24 17 21 18 54 -16z m1401 -27 c122 -38
223 -139 267 -267 51 -146 15 -303 -98 -422 -161 -171 -437 -170 -599 1 -53
56 -103 152 -115 218 l-6 38 38 -7 c46 -8 53 -12 53 -31 0 -20 19 -18 28 4 9
22 16 22 180 7 119 -12 140 -11 160 1 30 20 39 44 20 58 -20 15 -51 76 -38 76
18 0 11 18 -49 138 -32 64 -60 121 -62 127 -2 5 -10 9 -16 7 -7 -2 -13 1 -13
7 0 5 6 11 13 14 6 2 10 7 7 10 -3 3 -22 0 -43 -6 -40 -13 -45 -34 -6 -29 13
2 20 0 16 -4 -4 -5 -29 -11 -55 -14 -38 -5 -43 -8 -27 -15 11 -5 24 -13 28
-19 5 -7 6 -4 3 7 -4 14 -1 18 12 15 9 -2 16 -11 14 -20 -3 -21 108 -249 119
-242 12 7 30 -32 23 -50 -9 -23 -21 -19 -28 9 -4 14 -12 25 -19 25 -6 0 -38
54 -69 120 -31 66 -61 120 -67 120 -14 0 -4 -46 17 -80 29 -45 61 -120 52
-120 -24 0 -100 25 -100 33 0 4 -4 6 -9 3 -8 -5 -139 28 -148 38 -3 3 7 28 23
56 36 66 118 144 145 137 10 -3 19 -1 19 4 0 5 -7 9 -15 9 -9 0 -12 6 -9 15 5
12 15 14 41 9 25 -5 37 -2 46 10 26 34 173 40 267 10z"/>
<path d="M1645 3160 c-10 -11 -36 -25 -58 -31 -32 -8 -42 -17 -56 -50 -16 -40
-31 -51 -31 -24 0 19 3 20 -79 -11 -62 -23 -69 -28 -61 -44 18 -34 12 -40 -35
-33 l-45 6 0 -130 c0 -127 -1 -131 -22 -137 -13 -3 -33 -6 -46 -6 -20 0 -23
-4 -20 -32 3 -33 4 -33 53 -32 28 0 67 4 87 8 33 6 38 10 36 34 -4 66 2 92 21
92 23 0 31 -19 31 -72 0 -31 -4 -41 -20 -45 -11 -3 -20 -12 -20 -19 0 -16 37
-18 74 -4 31 11 32 5 7 -36 -13 -22 -16 -35 -9 -42 7 -7 -24 -76 -97 -219
-143 -278 -158 -303 -172 -303 -7 0 -13 2 -13 5 0 3 28 58 61 123 34 64 95
181 136 260 51 98 70 143 61 146 -7 3 -35 12 -63 20 -113 36 -272 38 -375 5
-49 -16 -160 -75 -191 -103 -15 -13 -29 -39 -33 -62 -4 -21 -4 -35 1 -31 8 9
9 14 12 43 0 8 5 13 10 10 5 -3 8 2 7 12 -1 12 6 16 24 15 14 -1 19 1 12 4
-10 4 -10 8 -1 19 16 20 28 17 24 -5 -3 -14 1 -18 12 -14 8 3 11 9 6 12 -28
20 1 44 57 46 14 0 30 3 35 7 52 32 362 4 373 -34 6 -22 0 -29 -20 -24 -13 3
-9 -1 9 -9 22 -10 31 -20 27 -30 -7 -18 -8 -18 -69 1 -63 20 -212 23 -285 5
-182 -44 -340 -189 -402 -369 -33 -96 -33 -258 0 -354 30 -86 85 -170 153
-234 110 -103 221 -147 374 -148 166 0 292 50 405 164 110 112 160 235 160
400 0 78 -5 109 -28 176 -34 96 -88 180 -150 234 -37 31 -44 42 -34 52 10 10
24 0 72 -47 67 -67 129 -175 154 -269 9 -35 26 -70 41 -85 l25 -26 0 65 c-1
161 -56 298 -174 429 -80 88 -80 88 -68 109 7 10 23 2 68 -31 59 -43 59 -43
79 -24 30 29 171 120 245 157 64 33 65 33 39 44 -34 14 -190 119 -184 124 13
13 238 41 330 42 l111 0 37 -38 c21 -21 35 -41 32 -43 -3 -3 10 -3 28 0 23 3
26 6 12 9 -11 2 -39 23 -63 45 l-43 42 -107 -1 c-128 -2 -233 -16 -365 -51
-54 -14 -101 -22 -105 -18 -10 10 36 176 55 197 20 22 66 24 83 3 15 -18 31
-20 25 -2 -2 6 -6 39 -9 71 -5 61 -15 76 -52 76 -11 0 -29 7 -40 15 -26 20
-38 19 -59 -5z m12 -95 c14 -10 24 -12 28 -5 3 5 14 10 23 9 13 0 12 -3 -5
-11 -20 -10 -69 -108 -94 -188 -5 -18 -8 -20 -8 -7 -1 10 -13 38 -27 62 -20
35 -24 51 -18 81 12 65 56 91 101 59z m-409 -756 c26 -10 27 -18 7 -45 -8 -10
-15 -27 -15 -36 0 -10 -4 -18 -10 -18 -5 0 -10 -7 -10 -15 0 -8 -9 -24 -19
-34 -11 -11 -17 -22 -14 -25 3 -3 -4 -21 -16 -41 -12 -20 -19 -41 -15 -46 3
-5 -8 -36 -25 -69 -37 -71 -38 -88 -8 -99 33 -13 44 -4 78 60 27 49 35 58 53
53 22 -5 44 28 119 181 11 22 21 41 22 43 10 11 48 -26 83 -78 119 -177 91
-395 -69 -545 -240 -224 -635 -83 -692 248 -36 215 127 440 345 476 56 9 147
4 186 -10z"/>
<path d="M4208 1335 c-36 -9 -83 -22 -103 -31 l-37 -15 5 -412 c6 -447 18
-578 53 -604 39 -30 236 13 242 53 1 10 -4 52 -11 92 -8 39 -11 72 -8 72 3 0
44 -32 91 -70 l84 -69 48 26 c72 39 138 114 138 155 -1 30 -11 41 -110 118
-60 47 -109 88 -109 92 -1 5 14 29 33 55 172 242 150 456 -54 528 -65 23 -183
27 -262 10z m-24 -97 c14 -86 36 -400 36 -515 0 -100 -3 -133 -16 -151 -44
-64 -51 -21 -61 390 -5 218 -3 281 7 293 19 23 29 18 34 -17z"/>
<path d="M425 1333 c-129 -17 -180 -57 -197 -154 -17 -95 -16 -610 0 -676 25
-96 143 -178 257 -178 153 1 340 179 389 371 32 125 16 286 -40 401 -47 97
-161 202 -243 222 -48 12 -129 19 -166 14z m-61 -119 c10 -78 7 -224 -8 -323
-12 -77 -19 -99 -40 -120 -46 -46 -50 -25 -38 191 12 201 20 248 48 279 25 28
31 24 38 -27z m208 -264 c63 -67 61 -185 -3 -250 -36 -36 -64 -39 -73 -7 -8
30 -8 282 1 290 12 12 47 -4 75 -33z"/>
<path d="M5297 1308 c-9 -7 -37 -58 -62 -113 -52 -114 -76 -145 -103 -129 -9
6 -40 55 -69 110 -28 54 -60 104 -70 112 -26 20 -137 10 -189 -16 -51 -26 -94
-75 -94 -108 0 -41 24 -76 126 -185 53 -57 104 -122 114 -144 14 -32 19 -82
24 -245 5 -152 11 -211 22 -227 40 -62 228 -47 253 20 5 13 14 108 21 212 14
224 18 234 121 350 108 121 159 193 159 226 0 76 -194 182 -253 137z m-457
-115 c0 -5 42 -56 93 -114 113 -130 154 -200 138 -235 -10 -24 -12 -24 -36 -8
-54 35 -235 288 -235 327 0 14 20 37 32 37 4 0 8 -3 8 -7z"/>
<path d="M1500 1282 l-25 -20 1 -289 c1 -299 15 -501 38 -557 17 -41 66 -82
114 -96 75 -20 374 -6 460 23 52 18 75 54 74 120 0 62 -30 140 -59 155 -12 6
-57 4 -130 -6 -145 -19 -160 -15 -169 44 -3 25 -5 167 -3 317 l4 272 -60 24
c-40 16 -87 26 -140 29 -70 4 -83 2 -105 -16z m90 -89 c7 -21 14 -137 17 -259
5 -199 4 -224 -12 -247 -24 -37 -42 -34 -50 11 -10 53 -3 482 9 510 13 32 23
27 36 -15z"/>
<path d="M2570 1278 c-76 -39 -77 -31 54 -434 65 -197 128 -377 141 -400 25
-42 69 -81 118 -102 74 -32 189 1 259 74 116 124 377 703 349 777 -13 33 -57
63 -114 77 -54 14 -201 10 -217 -6 -6 -6 -40 -114 -75 -240 -79 -284 -98 -323
-135 -279 -6 8 -41 128 -77 267 -35 139 -71 259 -78 267 -9 10 -43 16 -97 18
-72 4 -89 1 -128 -19z m84 -115 c76 -197 122 -335 152 -451 32 -125 33 -137
19 -158 -8 -13 -22 -24 -30 -24 -23 0 -63 122 -139 425 -25 99 -48 190 -52
203 -6 20 9 52 25 52 4 0 15 -21 25 -47z"/>
<path d="M1075 1263 c-65 -3 -94 -8 -107 -20 -67 -61 -76 -434 -17 -727 22
-107 39 -150 64 -160 9 -3 101 -6 205 -6 l189 0 19 28 c27 37 45 108 37 148
-10 54 -35 64 -157 64 l-108 0 0 40 0 40 55 0 c30 0 65 5 79 11 50 23 57 109
16 190 -20 38 -46 49 -116 49 -34 0 -34 0 -34 46 l0 46 58 -3 c123 -6 131 -4
152 44 32 74 30 158 -5 192 -26 27 -49 28 -330 18z m-25 -195 c0 -68 5 -183
12 -256 11 -130 11 -133 -10 -154 l-21 -22 -15 36 c-28 65 -38 131 -38 238 0
146 30 280 63 280 5 0 9 -55 9 -122z"/>
<path d="M3671 1261 c-86 -6 -96 -8 -113 -32 -11 -14 -26 -64 -35 -115 -37
-211 21 -719 87 -754 11 -6 99 -10 209 -10 l190 0 19 25 c26 33 46 116 37 155
-11 50 -36 60 -157 60 l-108 0 0 40 0 40 54 0 c30 0 66 4 79 9 50 19 60 110
20 188 -21 40 -43 50 -110 52 l-43 1 0 46 0 46 58 -3 c125 -6 131 -4 154 49
14 30 21 68 21 106 0 52 -3 62 -27 83 -25 21 -35 23 -134 21 -59 -1 -149 -4
-201 -7z m-34 -208 c0 -82 8 -213 17 -292 15 -130 15 -146 1 -167 -9 -13 -22
-24 -30 -24 -32 0 -71 230 -60 360 13 154 40 270 64 270 3 0 7 -66 8 -147z"/>
<path d="M2240 1228 c-65 -33 -80 -69 -80 -193 0 -105 23 -394 39 -495 18
-112 57 -150 153 -150 60 0 113 23 139 60 17 23 17 37 9 150 -5 69 -10 222
-10 340 0 231 -3 247 -53 284 -43 31 -139 34 -197 4z m52 -164 c10 -54 21
-156 24 -225 7 -122 6 -127 -16 -149 -30 -30 -34 -20 -48 95 -19 155 -25 327
-13 358 19 49 35 25 53 -79z"/>
<path d="M5528 1043 c-26 -32 -78 -94 -117 -138 -73 -82 -91 -119 -91 -189 l0
-39 26 39 c14 21 59 75 98 119 123 138 156 196 139 243 -9 22 -11 20 -55 -35z"/>
<path d="M4680 1065 c-1 -60 -50 -180 -120 -292 -11 -18 -12 -24 -1 -37 23
-27 37 -18 64 42 30 68 43 112 52 169 l7 42 35 -47 c20 -26 68 -81 107 -122
39 -41 79 -86 88 -100 17 -24 17 -24 12 35 -8 72 -17 88 -108 185 -39 41 -86
93 -103 115 l-32 40 -1 -30z"/>
<path d="M2531 942 c-1 -28 30 -138 95 -334 93 -281 98 -293 143 -341 57 -61
109 -86 180 -87 73 0 120 16 178 59 60 46 102 107 197 291 111 216 146 302
146 363 l0 52 -49 -112 c-62 -145 -195 -383 -243 -438 -22 -25 -66 -57 -100
-74 -114 -57 -229 -34 -318 65 -40 46 -50 70 -136 324 -75 224 -93 267 -93
232z"/>
<path d="M3481 658 c-2 -41 28 -244 45 -311 21 -81 43 -123 72 -139 19 -10 75
-13 224 -12 174 1 200 3 218 19 18 17 19 16 25 -11 13 -58 17 -65 48 -80 36
-19 111 -15 199 11 86 25 101 41 93 96 l-7 46 -65 -24 c-84 -30 -172 -40 -213
-23 -32 13 -60 55 -60 90 0 19 -2 19 -22 6 -29 -18 -226 -29 -348 -20 -78 6
-94 10 -115 32 -31 31 -61 126 -79 252 -8 52 -14 83 -15 68z"/>
<path d="M860 553 c-41 -78 -150 -185 -233 -229 -63 -34 -80 -39 -142 -39 -56
0 -81 5 -126 28 -84 41 -146 100 -164 155 l-15 47 5 -70 c7 -87 31 -140 80
-184 103 -90 236 -112 349 -57 82 40 196 150 238 231 18 36 36 65 39 65 3 0
11 -33 18 -72 16 -99 41 -175 66 -202 18 -20 36 -24 114 -30 51 -4 147 -4 214
0 105 6 124 10 142 28 12 12 25 29 28 37 4 11 11 7 27 -14 12 -15 43 -40 68
-55 44 -25 55 -27 187 -30 158 -4 329 17 379 46 17 10 39 34 49 55 17 33 20
35 34 22 70 -71 232 -62 298 16 20 25 25 41 25 86 l0 56 -21 -27 c-62 -78
-213 -95 -286 -31 l-28 23 -15 -31 c-37 -77 -136 -102 -400 -102 -174 0 -175
0 -223 28 -26 15 -55 39 -63 53 l-17 25 -31 -34 -31 -34 -126 -7 c-135 -8
-256 -1 -302 16 -36 14 -60 62 -82 163 -26 122 -26 122 -55 68z"/>
<path d="M4698 425 c-48 -53 -156 -117 -183 -109 -11 4 -38 22 -61 40 -23 19
-43 34 -45 34 -2 0 -2 -25 -1 -56 4 -53 6 -57 54 -95 27 -21 55 -39 62 -39 25
0 132 72 173 116 44 47 63 101 47 133 -8 14 -14 11 -46 -24z"/>
<path d="M5283 360 c-15 -39 -81 -71 -159 -78 -51 -4 -71 0 -108 18 -26 12
-53 34 -62 48 -14 26 -15 24 -10 -36 7 -80 18 -99 69 -123 75 -33 193 -19 246
30 24 23 30 38 36 95 8 75 4 89 -12 46z"/>
</g>
</svg>
