<?xml version="1.0" standalone="no"?>
<!DOCTYPE svg PUBLIC "-//W3C//DTD SVG 20010904//EN"
 "http://www.w3.org/TR/2001/REC-SVG-20010904/DTD/svg10.dtd">
<svg version="1.0" xmlns="http://www.w3.org/2000/svg"
 width="192.000000pt" height="192.000000pt" viewBox="0 0 192.000000 192.000000"
 preserveAspectRatio="xMidYMid meet">
<metadata>
Created by potrace 1.16, written by Peter Selinger 2001-2019
</metadata>
<g transform="translate(0.000000,192.000000) scale(0.100000,-0.100000)"
fill="#000000" stroke="none">
<path d="M880 1905 c0 -8 -5 -15 -11 -15 -8 0 -8 -4 -1 -12 8 -10 3 -13 -19
-14 -26 -1 -27 0 -11 12 9 7 13 13 7 13 -17 0 -45 -25 -37 -34 4 -4 -3 -4 -15
-1 -12 4 -24 2 -28 -3 -4 -7 0 -8 11 -4 15 6 15 4 -1 -20 -9 -15 -22 -27 -27
-27 -6 0 -5 6 2 15 16 19 9 19 -38 0 -26 -11 -33 -18 -23 -24 10 -7 9 -10 -4
-14 -9 -4 -13 -3 -10 3 8 13 -1 13 -26 -1 -11 -5 -17 -14 -14 -19 3 -4 -5 -6
-17 -3 -17 3 -19 2 -9 -5 15 -11 -2 -27 -19 -17 -23 14 -8 -15 18 -35 19 -15
21 -18 5 -11 -12 6 -29 18 -38 27 -16 16 -32 14 -22 -3 3 -5 40 -26 82 -48 43
-21 79 -45 82 -52 3 -7 11 -13 19 -13 18 0 118 -53 158 -84 17 -13 42 -27 56
-31 14 -4 40 -18 59 -31 23 -15 44 -22 60 -19 14 3 20 2 14 -1 -23 -10 -14
-20 16 -18 32 2 59 -11 48 -23 -5 -4 -11 -3 -15 2 -4 6 -16 11 -27 12 -13 2
-8 -4 13 -14 32 -17 33 -17 56 10 l23 26 0 -28 c0 -19 -5 -27 -13 -24 -6 2
-15 0 -19 -6 -4 -7 0 -8 11 -4 11 4 15 2 11 -4 -10 -16 16 -34 33 -23 8 6 20
10 25 10 6 0 3 -5 -5 -10 -11 -7 -11 -10 -2 -10 7 0 10 -4 7 -10 -3 -6 1 -7 9
-4 9 3 14 9 11 13 -2 4 2 8 10 8 20 0 19 -13 -1 -21 -8 -3 -12 -11 -9 -17 4
-5 9 -8 12 -6 2 3 28 -10 56 -29 28 -19 57 -34 63 -34 17 0 42 -59 35 -84 -5
-16 -7 -12 -11 19 -3 22 -7 -72 -10 -209 l-5 -249 -115 -69 c-63 -37 -122 -72
-130 -78 -8 -5 -37 -22 -65 -36 -27 -15 -67 -37 -87 -50 -21 -13 -42 -24 -47
-24 -9 0 -43 19 -181 100 -49 29 -246 144 -252 147 -4 2 -7 -106 -8 -240 l0
-244 117 -68 c65 -38 145 -82 178 -99 33 -17 62 -34 63 -38 2 -5 39 -8 83 -8
63 0 79 3 79 15 0 8 6 12 13 10 6 -3 38 10 69 28 445 254 545 313 541 321 -4
5 -1 6 5 2 19 -11 99 72 129 133 l28 56 0 395 c0 383 -1 396 -21 440 -12 25
-29 54 -38 65 -16 20 -16 20 -9 0 6 -17 5 -18 -9 -5 -8 8 -13 20 -11 26 2 7
-17 28 -42 48 -40 30 -50 34 -68 25 -20 -11 -20 -12 4 -25 13 -7 20 -13 16
-14 -5 0 -17 5 -28 11 -20 10 -20 11 -2 32 10 11 13 17 6 14 -6 -4 -14 -3 -18
3 -3 5 -17 10 -31 10 -18 0 -24 5 -22 18 2 9 -3 17 -12 18 -8 0 -31 8 -50 17
-19 10 -27 15 -17 12 11 -3 16 -1 11 6 -3 6 -15 9 -25 6 -10 -3 -17 0 -16 7 1
6 -9 10 -23 9 -14 -1 -19 0 -12 3 16 7 -145 108 -170 106 -10 0 -21 4 -24 10
-5 7 -2 8 7 3 8 -5 11 -4 6 1 -5 5 -12 9 -15 9 -12 1 -56 27 -71 42 -8 9 -23
12 -37 9 -12 -3 -31 -3 -41 2 -24 9 -29 33 -5 25 14 -5 13 -3 -3 10 -28 23
-175 24 -175 2z"/>
</g>
</svg>
