<?xml version="1.0" standalone="no"?>
<!DOCTYPE svg PUBLIC "-//W3C//DTD SVG 20010904//EN"
 "http://www.w3.org/TR/2001/REC-SVG-20010904/DTD/svg10.dtd">
<svg version="1.0" xmlns="http://www.w3.org/2000/svg"
 width="950.000000pt" height="950.000000pt" viewBox="0 0 950.000000 950.000000"
 preserveAspectRatio="xMidYMid meet">
<metadata>
Created by potrace 1.16, written by Peter Selinger 2001-2019
</metadata>
<g transform="translate(0.000000,950.000000) scale(0.100000,-0.100000)"
fill="#000000" stroke="none">
<path d="M1935 8983 c-570 -76 -1009 -488 -1116 -1045 -18 -97 -21 -136 -16
-273 4 -136 9 -178 36 -279 48 -186 113 -274 251 -340 54 -25 80 -31 156 -34
141 -6 237 32 331 131 105 111 142 263 101 412 -16 60 -13 176 7 236 39 118
119 207 235 263 61 29 72 31 175 31 105 0 113 -2 179 -34 77 -37 148 -103 190
-173 15 -25 51 -129 80 -230 56 -191 176 -602 351 -1208 56 -195 151 -521 210
-725 136 -469 223 -770 320 -1105 155 -537 239 -738 428 -1020 128 -192 354
-438 531 -579 379 -301 815 -488 1311 -563 119 -17 569 -18 685 0 490 74 885
238 1270 525 123 92 384 354 481 482 285 377 453 776 526 1252 12 78 17 177
17 353 1 350 -17 462 -151 925 -149 521 -199 650 -311 820 -86 129 -221 255
-337 313 -111 55 -245 77 -374 62 -95 -12 -134 -23 -1021 -280 -338 -98 -857
-249 -1154 -335 -296 -85 -552 -163 -570 -172 -148 -75 -236 -218 -236 -383 0
-173 118 -336 285 -395 33 -12 78 -18 135 -18 80 1 118 10 620 157 294 86 666
195 825 241 160 46 438 127 619 179 364 106 420 115 485 75 38 -23 64 -51 87
-92 16 -30 154 -496 154 -521 0 -8 -8 -17 -17 -20 -10 -3 -103 -30 -208 -60
-181 -52 -1021 -295 -1470 -426 -115 -33 -282 -81 -370 -107 -88 -25 -186 -59
-217 -75 -75 -40 -141 -111 -181 -196 -30 -62 -32 -75 -32 -173 0 -101 1 -108
37 -180 46 -93 112 -158 206 -202 62 -29 75 -32 167 -32 93 0 114 5 305 62
113 33 300 88 415 122 116 33 473 137 795 230 322 93 597 172 612 176 l26 7
-15 -69 c-59 -262 -194 -542 -364 -749 -82 -100 -240 -248 -350 -326 -192
-138 -436 -242 -689 -295 -111 -24 -148 -27 -330 -27 -130 -1 -232 4 -280 12
-398 72 -717 234 -990 504 -110 109 -190 211 -276 355 -88 145 -137 266 -207
508 -133 455 -494 1700 -601 2070 -86 298 -250 866 -336 1161 -73 252 -106
336 -175 453 -232 393 -662 636 -1115 629 -58 0 -118 -3 -135 -5z"/>
<path d="M5335 1945 c-236 -61 -418 -215 -508 -431 -39 -94 -51 -162 -51 -279
1 -205 78 -383 227 -521 132 -123 279 -183 463 -192 134 -5 232 16 362 79 150
73 290 233 348 399 139 399 -94 836 -502 940 -90 23 -260 26 -339 5z m328
-374 c134 -65 207 -182 207 -331 0 -115 -40 -202 -129 -283 -71 -63 -144 -90
-246 -90 -112 0 -183 28 -255 103 -67 69 -96 122 -112 206 -21 115 14 231 95
316 84 88 161 119 288 115 74 -3 96 -8 152 -36z"/>
<path d="M5477 1301 c-78 -51 -86 -156 -16 -215 88 -74 219 -11 219 106 0 97
-122 163 -203 109z"/>
<path d="M7140 1940 c-207 -55 -379 -197 -471 -389 -131 -275 -73 -606 143
-822 100 -100 245 -176 382 -200 86 -15 251 -7 326 16 253 77 437 271 502 529
17 65 19 101 16 195 -9 198 -76 351 -213 486 -84 82 -156 127 -268 168 -72 26
-98 30 -212 34 -106 2 -144 -1 -205 -17z m297 -346 c314 -106 345 -547 50
-688 -127 -61 -245 -55 -366 17 -121 72 -193 222 -175 363 8 71 64 183 110
223 35 31 118 78 164 92 45 13 167 10 217 -7z"/>
<path d="M7200 1304 c-35 -24 -49 -43 -60 -83 -28 -101 77 -199 171 -161 48
20 89 77 89 126 0 47 -32 102 -70 121 -35 18 -101 16 -130 -3z"/>
</g>
</svg>
